
<svg version="1.1" id="Layer_1" xmlns="http://www.w3.org/2000/svg" xmlns:xlink="http://www.w3.org/1999/xlink" viewBox="-51.2 -51.2 614.40 614.40" xml:space="preserve" width="201px" height="201px" fill="#000000">

<g id="SVGRepo_bgCarrier" stroke-width="0"/>

<g id="SVGRepo_tracerCarrier" stroke-linecap="round" stroke-linejoin="round"/>

<g id="SVGRepo_iconCarrier"> <rect x="0.003" y="328.659" style="fill:#8CC63F;" width="511.99" height="143.318"/> <polygon style="fill:#39B54A;" points="176.001,471.971 0.003,471.971 0.003,328.655 423.998,328.655 "/> <polygon style="fill:#FFFFFF;" points="39.706,48.382 39.706,328.415 63.739,328.415 63.739,72.415 448.261,72.415 448.261,328.415 472.294,328.415 472.294,48.382 "/> <polyline style="fill:#BFBFBF;" points="216.294,48.382 39.706,48.382 39.706,328.415 63.739,328.415 63.739,72.415 192.261,72.415 "/> <circle style="fill:#FFFFFF;" cx="423.999" cy="399.973" r="47.999"/> <rect x="415.869" y="392.158" width="15.673" height="15.673"/> <path d="M423.998,344.136c-30.788,0-55.836,25.048-55.836,55.835c0,30.789,25.048,55.837,55.836,55.837s55.835-25.048,55.835-55.837 C479.834,369.184,454.786,344.136,423.998,344.136z M407.51,436.58v-12.035h-15.247c-3.743-4.823-6.417-10.513-7.652-16.718h7.225 v-15.673h-7.232c1.229-6.205,3.894-11.894,7.63-16.718h15.275v-12.071c5.034-2.277,10.613-3.555,16.487-3.555 c5.648,0,11.024,1.178,15.904,3.29v12.335h15.673V375.2c3.832,4.874,6.565,10.649,7.815,16.953h-7.815v15.673h7.809 c-1.253,6.291-3.984,12.052-7.809,16.917v-0.199h-15.673v12.299c-4.881,2.113-10.257,3.29-15.904,3.29 C418.123,440.135,412.544,438.857,407.51,436.58z"/> <g> <rect x="80.457" y="359.766" style="fill:#FFFFFF;" width="167.184" height="15.673"/> <rect x="264.359" y="359.766" style="fill:#FFFFFF;" width="55.38" height="15.673"/> <rect x="175.543" y="392.158" style="fill:#FFFFFF;" width="104.49" height="15.673"/> <rect x="280.033" y="424.549" style="fill:#FFFFFF;" width="32.392" height="15.673"/> <rect x="295.706" y="392.158" style="fill:#FFFFFF;" width="56.424" height="15.673"/> </g> <path d="M479.608,320.055V40.023H32.392v280.033H0v15.673h512v-15.673H479.608z M363.082,167.975l20.917-20.917l20.917,20.917 l-20.917,20.916L363.082,167.975z M372.916,199.975l-20.917,20.917l-20.917-20.917l20.916-20.917L372.916,199.975z M351.999,156.891 l-20.917-20.917l20.917-20.917l20.917,20.917L351.999,156.891z M340.916,167.975L320,188.891l-20.917-20.917L320,147.058 L340.916,167.975z M308.916,199.975l-20.917,20.917l-20.917-20.917l20.917-20.917L308.916,199.975z M288,156.891l-20.917-20.917 L288,115.058l20.917,20.917L288,156.891z M276.917,167.975L256,188.891l-20.917-20.917L256,147.058L276.917,167.975z M244.917,199.975L224,220.891l-20.917-20.917L224,179.058L244.917,199.975z M224,156.891l-20.917-20.917L224,115.058l20.917,20.917 L224,156.891z M212.917,167.975L192,188.891l-20.917-20.917L192,147.058L212.917,167.975z M180.918,199.975l-20.917,20.917 l-20.917-20.917l20.917-20.917L180.918,199.975z M160.001,156.891l-20.917-20.917l20.917-20.917l20.917,20.917L160.001,156.891z M148.918,167.975l-20.917,20.917l-20.917-20.916l20.917-20.917L148.918,167.975z M96.002,156.892l-20.917-20.916l20.917-20.917 l20.917,20.917L96.002,156.892z M96.002,179.058l20.916,20.917l-20.916,20.917l-20.917-20.917L96.002,179.058z M96.002,243.057 l20.917,20.917L96.002,284.89l-20.917-20.917L96.002,243.057z M107.085,231.975l20.917-20.917l20.917,20.917l-20.917,20.917 L107.085,231.975z M160.001,243.057l20.917,20.917l-20.917,20.917l-20.917-20.917L160.001,243.057z M171.084,231.974l20.917-20.917 l20.917,20.917l-20.917,20.917L171.084,231.974z M224,243.057l20.917,20.917L224,284.89l-20.917-20.917L224,243.057z M235.083,231.974L256,211.058l20.917,20.917L256,252.89L235.083,231.974z M288,243.057l20.917,20.917L288,284.89l-20.917-20.917 L288,243.057z M299.083,231.974L320,211.057l20.917,20.917L320,252.89L299.083,231.974z M351.999,243.057l20.916,20.917 l-20.917,20.917l-20.916-20.917L351.999,243.057z M363.082,231.974l20.916-20.917l20.917,20.917l-20.917,20.916L363.082,231.974z M415.998,243.057l20.917,20.917l-20.917,20.917l-20.917-20.917L415.998,243.057z M395.081,199.975l20.916-20.917l20.917,20.917 l-20.917,20.917L395.081,199.975z M395.081,135.976l20.917-20.917l20.917,20.917l-20.917,20.916L395.081,135.976z M402.834,79.729 h26.326l-13.164,13.164L402.834,79.729z M404.915,103.976l-20.917,20.917l-20.917-20.917l20.917-20.917L404.915,103.976z M351.999,92.892l-13.164-13.164h26.327L351.999,92.892z M340.916,103.976l-20.917,20.917l-20.917-20.917l20.917-20.917 L340.916,103.976z M287.999,92.892l-13.164-13.164h26.326L287.999,92.892z M276.917,103.976L256,124.891l-20.917-20.917L256,83.059 L276.917,103.976z M224,92.892l-13.164-13.164h26.326L224,92.892z M212.918,103.976l-20.917,20.917l-20.917-20.917l20.917-20.917 L212.918,103.976z M160.001,92.892l-13.164-13.164h26.327L160.001,92.892z M148.918,103.976l-20.916,20.917l-20.917-20.917 l20.916-20.917L148.918,103.976z M96.002,92.892L82.838,79.729h26.326L96.002,92.892z M84.919,103.976l-12.821,12.821V91.155 L84.919,103.976z M84.919,167.976l-12.821,12.821v-25.642L84.919,167.976z M84.919,231.975l-12.821,12.821v-25.642L84.919,231.975z M84.919,295.974l-12.821,12.821v-25.642L84.919,295.974z M83.003,320.055l13-12.999l12.999,12.999H83.003z M107.085,295.974 l20.917-20.917l20.917,20.917l-20.917,20.917L107.085,295.974z M147.001,320.055l13-13l13,13H147.001z M171.084,295.973 l20.917-20.917l20.917,20.917l-20.916,20.917L171.084,295.973z M211.001,320.055L224,307.057l12.999,12.999H211.001z M235.083,295.974L256,275.057l20.917,20.917L256,316.889L235.083,295.974z M275,320.055l13-12.999l12.999,12.999H275z M299.082,295.974l20.917-20.917l20.917,20.917l-20.917,20.917L299.082,295.974z M338.999,320.055l13-13l13,13H338.999z M363.082,295.973l20.917-20.917l20.917,20.917l-20.917,20.917L363.082,295.973z M402.999,320.055l12.999-12.999l12.999,12.999 H402.999z M439.902,308.794l-12.821-12.821l12.821-12.821V308.794z M439.902,244.796l-12.821-12.821l12.821-12.821V244.796z M439.902,180.797l-12.821-12.821l12.821-12.821V180.797z M439.902,116.797l-12.821-12.822l12.821-12.82V116.797z M56.424,64.055 v256h-8.359V55.696h415.869v264.359h-8.359v-256H56.424z"/> </g>

</svg>